<?xml version="1.0" encoding="utf-8"?>
<!-- Generator: Adobe Illustrator 15.0.0, SVG Export Plug-In . SVG Version: 6.00 Build 0)  -->
<!DOCTYPE svg PUBLIC "-//W3C//DTD SVG 1.1//EN" "http://www.w3.org/Graphics/SVG/1.1/DTD/svg11.dtd">
<svg version="1.1" id="Layer_1" xmlns="http://www.w3.org/2000/svg" xmlns:xlink="http://www.w3.org/1999/xlink" x="0px" y="0px"
	 width="50px" height="50px" viewBox="0 0 50 50" enable-background="new 0 0 50 50" xml:space="preserve">
<path fill="#FFFFFF" d="M18.965,5.099l-1.243-0.951L9.531,4.623l-1.097,1.28c0,0-0.732,29.402,21.137,41.25
	c1.098,0.073,0.374,0.139,1.536,0c1.26-1.842,4.753-6.948,4.753-6.948l0.146-1.682l-7.825-7.169l-1.609,0.073l-3.583,2.342
	c0,0-5.047-7.461-6.436-14.702c2.048-1.463,4.242-2.999,4.242-2.999l0.731-1.463L18.965,5.099z"/>
<path fill="none" stroke="#FFFFFF" stroke-width="3.9655" stroke-miterlimit="10" d="M24.521,11.168
	c2.563,0.585,14.996,5.632,7.243,19.601"/>
<path fill="none" stroke="#FFFFFF" stroke-width="3.9655" stroke-miterlimit="10" d="M27.257,3.531
	c4.017,0.917,23.503,8.827,11.353,30.72"/>
</svg>
